<svg id="Camada_1" data-name="Camada 1" xmlns="http://www.w3.org/2000/svg" viewBox="0 0 613.64 611.16"><defs><style>.cls-1{fill:#3c3d3c;}.cls-2{fill:#3b3d3c;}.cls-3{fill:#3a3c3d;}.cls-4{fill:#3c3c38;}</style></defs><path class="cls-1" d="M824,680.92c-1-.76-3.78-1.84-1.27-2.78,3.36-1.26,2.6-2.68,2-5-.39-1.68.13-3.57.24-5.34-2.47-.54-1.69,2.23-3.65,2.82-.31-4.59-2.51-8.6-4-13.15,2.61-1.14,6,1.69,7.94-1.49.68-1.1,2.31-2.52-.1-3.63a33.5,33.5,0,0,1-8.41-6c-7.11-6.52-14.88-8.27-23.59-3.48a415.82,415.82,0,0,0-9.72-75.35c-1.83-8.13-4.88-15.83-7.22-23.78-1.54-5.23.85-9.26,6-10.36,3.89-.82,8.83-.32,11.44-2.58,2.8-2.41.53-7.53,1-11.43.18-1.48.38-3,.42-4.46.13-4.6,2.73-6.39,7-6.64,9.82-.59,19.13,1.51,28.39,4.56A428.37,428.37,0,0,1,893,539.15c8.07,4.15,14.93,10.5,23.37,14.21,1.14.5,1.77,1.95,1.63,4-41.1-12.12-81.9-25.8-125.89-21.3.76,2.54,2.74,2.22,4.19,2.54,14.6,3.26,29.43,5.69,43.79,9.76,31.24,8.86,61.89,19.5,90.64,34.89a80.19,80.19,0,0,1,11.12,7.58c2,1.52,3.21,1.58,5.09-.1a28.13,28.13,0,0,1,5.93-3.63c7-3.57,9.15-3.29,14.9,2.36,2.16,2.12,3.94,2.82,6.9,1.21,13.42-7.28,26.88-14.52,41-20.35,34.54-14.27,70-25.25,107.16-30.24.78-.11,1.53-.33,3.12-.68-4.59-3.09-9.07-3.65-13.66-3.65a256.39,256.39,0,0,0-73.23,10.76,214.7,214.7,0,0,1-23.58,5.82c-3.25.57-6.92,2.38-10.28,3.88-1.89.84-3.45.67-4.2-1.09-.93-2.2,1.49-2.11,2.55-2.64,14.07-7.15,27.31-15.8,41.62-22.53a298.41,298.41,0,0,1,47.9-18.07c7.86-2.16,15.76-4.16,23.56-6.53,3.08-.94,4.21-.64,4.09,2.87a32.11,32.11,0,0,0,6.26,20c3.06,4.33,7.48,6,12.43,6.36,3.49.25,4.35,1.37,3.64,4.95-2.58,13.06-7.19,25.6-9.53,38.73-3.55,20-6.2,40.06-6.75,60.36-.08,3.2-1.2,3.86-3.78,2.68-2.84-1.28-5.91-.87-8.83-1.29a7.83,7.83,0,0,0-7.77,3.57,90.62,90.62,0,0,1-17,20c4.67,2.28,6.58,6.79,10.24,9.7,2.36,1.88,2.43,5.35,2.92,8.31.35,2.12-1.49,1.89-2.59,2.22-3.64,1.11-7.33,2.06-12.35,3.45l34.24,7.59c4.23.94,5.66-.76,5.51-5-.23-6.2,1.39-12.19,3.14-18.1a5,5,0,0,1,4.57-4c2.46-.23,3.48,1.39,4.5,3.22,5.14,9.25,6.54,19.25,2.49,28.81-4.66,11-19.17,19.63-33.36,14.69-5.32-1.84-10.8-3.23-15.88-5.85-3.86-2-8.15-1.08-12.23-.22a343.8,343.8,0,0,0-44.66,12.16,158.34,158.34,0,0,0-29.12,14,156,156,0,0,0-34.75,28c-.93,1-1.87,2.93-3.5,2.2s-.76-2.67-.76-4.06q-.07-69.46,0-138.95c0-4.43.42-8.91-1.77-13.35L961.37,611c-.14-1.49-.24-2.67-.36-3.94-2.43.42-1.68,3.74-4.06,3.9-2-3.9-3.91-2.58-5.81.08-.12,1.82-.35,3.63-.35,5.45q0,71.65,0,143.32v4.61c-1.4.87-2,.06-2.47-.5-17.62-19.51-39.4-32.65-63.61-42.35-17.09-6.84-34.89-10.6-52.83-14.08-3.23-.62-5.81.47-8.55,1.75-6.17,2.89-12.37,6.07-19.3,6.36-20.91.87-31.57-17.33-28.09-34.58,1.24-6.16,4.54-11.68,8.34-18.56,2.09,6.6,3.93,12,5.45,17.39a52.22,52.22,0,0,0,3.19,9.39c2.9,5.85,6.9,7.8,12.8,4.9,6.67-3.27,13-7.3,19.45-11,1.59-2.57,5.81-2.39,6.85-7.1C829.3,679,828.34,683.25,824,680.92Z" transform="translate(-653.18 -234.42)"/><path class="cls-2" d="M654.19,571.76a7.61,7.61,0,0,1,1.54,5c1.23,30.72,9.44,58.73,22.29,85,11.49,23.48,27.14,42.34,44.56,59.22a240.58,240.58,0,0,0,30.74,25.59A357,357,0,0,0,789,768a249,249,0,0,0,36.28,15.6,11.17,11.17,0,0,0,2,.27A432.2,432.2,0,0,0,878,798.32a413.83,413.83,0,0,0,53,7.89,344.52,344.52,0,0,0,54.23.5,400.33,400.33,0,0,0,61.44-9.48c12.79-3,25.29-7.32,38-10.79a18.05,18.05,0,0,0,3-1.5c16.45-4.1,32-11.41,47.53-19a234.63,234.63,0,0,0,41.78-26.73c19-14.93,36.92-32,51.14-53.59,15-22.77,26.45-48,32.47-76.55,2.06-9.78,3-19.88,5.88-29.39l.11.34a148.24,148.24,0,0,1,0,17.51A228.65,228.65,0,0,1,1223.4,729c-13.54,18.55-28.77,34.4-46.18,47.4-5.93,4.42-11.64,9.22-17.8,13.25a321.34,321.34,0,0,1-61.2,31.15,363,363,0,0,1-64.87,18.13,407.85,407.85,0,0,1-98.07,6,393.62,393.62,0,0,1-64.88-9.14,354.61,354.61,0,0,1-76-27c-20.46-10-40-22-58-37.29-24.4-20.8-45.42-45.62-60.46-77.56a236.31,236.31,0,0,1-22.55-98.81C653.25,587.34,652.73,579.46,654.19,571.76Z" transform="translate(-653.18 -234.42)"/><path class="cls-3" d="M818,764c.68-7.22,2.9-14.11,4.39-21.16.38-1.78.89-3.48.51-5.31,8-1,15.83-3.32,23.73-5.06,3-.67,6.31-1,8.8,1.8,3.93,4.43,4,8.55-1.14,12.17-10.06,7-20.4,13.71-32.37,17.21A20.27,20.27,0,0,1,818,764Z" transform="translate(-653.18 -234.42)"/><path class="cls-4" d="M1096.25,739.1c2.67,9-.55,16.38-6.18,23.13-9.78-6.11-20.67-10.49-28.86-19.11-2.3-2.42-2.19-3.59.45-5.1a9,9,0,0,0,2-1.41c5.36-5.5,11.28-7,18.12-2.73C1086.25,736.62,1091.6,736.92,1096.25,739.1Z" transform="translate(-653.18 -234.42)"/><path class="cls-2" d="M1080.45,489.06a35.3,35.3,0,0,0-6.79-5c-12.78-7.08-25.11-15-38.73-20.48-2-.78-2.41-1.58-1.32-3.14,6.78-9.71,9.87-21.46,17.1-30.88a88.87,88.87,0,0,0,9.7-15.59c5.33-11.12,7-22.85-1.67-32.76-6.1-7-5.88-13.65-3.47-21.34a32,32,0,0,0,.83-3.38c2.85-14.05,5.55-28.28,3.9-42.56-3.06-26.53-15.62-47.49-38.5-62.1-19.47-12.43-41-17.34-63.53-16.6-7.39.24-14.46,3.77-22-.27-2-1.09-5.22-.39-7.85.39-8.15,2.4-16.37,4.6-24.48,7.15-3.39,1.06-7.09,1.49-10.15,3.85,2.76,2.46,6.09,1.58,10,2.36-1.24,1.1-1.75,1.83-2.44,2.12-17.24,7.46-27.61,21.59-36.23,37.38a31.47,31.47,0,0,0-2.12,5.58c-7,22.3-4.42,44.4,1.9,66.26,1.75,6,1.53,11-1.59,16.57-5.93,10.56-11,21.48-5,34,4,8.42,7.9,16.84,14.54,23.59a11,11,0,0,1,2.82,4.62,141.33,141.33,0,0,0,9.19,22.56c1.54,3,.9,3.83-2.15,4.7-14.44,4.07-26.83,12.24-39.25,20.25-3,1.91-5,4.85-6.95,7.76-.71,1.07-1.72,2.73.2,3.68a62,62,0,0,0,18.55,5.47c3.79.56,7.3-2.78,10.78-4.67,7.74-4.19,15.3-8.72,23.13-12.73,5.85-3,11.32-4.37,17.8.49a86.9,86.9,0,0,0,30.58,14.24c27.73,7.19,53,.75,76.45-14.55,5.46-3.56,14.2-4,18.9.28,3.76,3.43,8.28,4.78,12.53,6.91a48.93,48.93,0,0,1,9.68,5.95c3.09,2.56,6.85,5.11,11.39,3.5,3.77-1.33,7.59-2.41,11.47-3.36a10.6,10.6,0,0,0,6.87-5.25C1085.4,492.19,1082.06,490.57,1080.45,489.06Zm-48.87-69.82c-3.54,2.34-5,5.41-5.84,9.31-4.86,21.64-16.77,38.26-36.55,48.46-24.74,12.78-48.11,9-70-7.3-14.77-11-22.34-26.3-26.26-43.77-.66-2.9-1.08-5.21-4.86-5.76-2.77-.4-4.95-2.55-5.84-5.6a7.7,7.7,0,0,0-1.86-3.43c-6.69-6.15-5.45-13.3-2.9-20.71.84-2.45,1.91-2.66,3.84-1,1.35,1.19,2.9,2.21,5,1.1s2.14-3.07,2-5.14c-.51-11.59-.22-23.05,7.14-32.92,6.68-9,14.8-15.86,27.79-18.4-6.11,5.25-7.34,10.83-6.47,17,.66,4.7,3.14,5.74,7.28,3.3,5.52-3.25,11.68-5.51,16.09-11.23.87,2.9-2.26,4-1,6.36,5.45-.09,7.91-4.37,10.78-8.32,1,2.46-1.51,3.83-1.13,6.3,4-.6,7.65-2,10.1-5.13,2.28-2.91,2.58-7.13,5.8-9.93-1.68,13.57.45,11.6,5.12,10.47,0,5.08,0,10.13,0,15.18,0,3.53.45,7.1,4.49,7.87a7.77,7.77,0,0,0,8.77-4.29,33.78,33.78,0,0,0,2.35-4.94c1.17-3.51,3.49-5.79,7-6.31,8.26-1.18,12.32-7.83,17.49-13,1-1,1.56-2.41,3.12-3,2.31-.91,3.8-1.41,4.46,2a24,24,0,0,0,6.65,12.68c6,5.7,6.63,12.69,6.82,20.07.13,5.32.3,10.65.22,16,0,2.38.63,3.61,3.12,4.13,9.08,1.9,13.29,9.53,8,19A32.19,32.19,0,0,1,1031.58,419.24Z" transform="translate(-653.18 -234.42)"/></svg>